<svg width="16" height="16" viewBox="0 0 16 16" fill="none" xmlns="http://www.w3.org/2000/svg">
<path fill-rule="evenodd" clip-rule="evenodd" d="M13.4737 1.26316C13.4737 0.928148 13.3406 0.606858 13.1037 0.36997C12.8668 0.133082 12.5455 0 12.2105 0C11.8755 0 11.5542 0.133082 11.3173 0.36997C11.0805 0.606858 10.9474 0.928148 10.9474 1.26316V1.68421H1.26316C0.928148 1.68421 0.606858 1.81729 0.36997 2.05418C0.133082 2.29107 0 2.61236 0 2.94737C0 3.28238 0.133082 3.60367 0.36997 3.84056C0.606858 4.07744 0.928148 4.21053 1.26316 4.21053H10.9474V4.63158C10.9474 4.96659 11.0805 5.28788 11.3173 5.52477C11.5542 5.76165 11.8755 5.89474 12.2105 5.89474C12.5455 5.89474 12.8668 5.76165 13.1037 5.52477C13.3406 5.28788 13.4737 4.96659 13.4737 4.63158V4.21053H14.7368C15.0719 4.21053 15.3931 4.07744 15.63 3.84056C15.8669 3.60367 16 3.28238 16 2.94737C16 2.61236 15.8669 2.29107 15.63 2.05418C15.3931 1.81729 15.0719 1.68421 14.7368 1.68421H13.4737V1.26316ZM1.26316 6.73684C0.928148 6.73684 0.606858 6.86992 0.36997 7.10681C0.133082 7.3437 0 7.66499 0 8C0 8.33501 0.133082 8.6563 0.36997 8.89319C0.606858 9.13008 0.928148 9.26316 1.26316 9.26316H2.52632V9.68421C2.52632 10.0192 2.6594 10.3405 2.89629 10.5774C3.13317 10.8143 3.45446 10.9474 3.78947 10.9474C4.12448 10.9474 4.44577 10.8143 4.68266 10.5774C4.91955 10.3405 5.05263 10.0192 5.05263 9.68421V9.26316H14.7368C15.0719 9.26316 15.3931 9.13008 15.63 8.89319C15.8669 8.6563 16 8.33501 16 8C16 7.66499 15.8669 7.3437 15.63 7.10681C15.3931 6.86992 15.0719 6.73684 14.7368 6.73684H5.05263V6.31579C5.05263 6.14991 5.01996 5.98565 4.95648 5.8324C4.893 5.67915 4.79996 5.5399 4.68266 5.4226C4.56537 5.30531 4.42612 5.21226 4.27286 5.14878C4.11961 5.0853 3.95535 5.05263 3.78947 5.05263C3.62359 5.05263 3.45934 5.0853 3.30608 5.14878C3.15283 5.21226 3.01358 5.30531 2.89629 5.4226C2.77899 5.5399 2.68595 5.67915 2.62247 5.8324C2.55899 5.98565 2.52632 6.14991 2.52632 6.31579V6.73684H1.26316ZM0 13.0526C0 12.7176 0.133082 12.3963 0.36997 12.1594C0.606858 11.9226 0.928148 11.7895 1.26316 11.7895H10.9474V11.3684C10.9474 11.0334 11.0805 10.7121 11.3173 10.4752C11.5542 10.2383 11.8755 10.1053 12.2105 10.1053C12.5455 10.1053 12.8668 10.2383 13.1037 10.4752C13.3406 10.7121 13.4737 11.0334 13.4737 11.3684V11.7895H14.7368C15.0719 11.7895 15.3931 11.9226 15.63 12.1594C15.8669 12.3963 16 12.7176 16 13.0526C16 13.3876 15.8669 13.7089 15.63 13.9458C15.3931 14.1827 15.0719 14.3158 14.7368 14.3158H13.4737V14.7368C13.4737 15.0719 13.3406 15.3931 13.1037 15.63C12.8668 15.8669 12.5455 16 12.2105 16C11.8755 16 11.5542 15.8669 11.3173 15.63C11.0805 15.3931 10.9474 15.0719 10.9474 14.7368V14.3158H1.26316C0.928148 14.3158 0.606858 14.1827 0.36997 13.9458C0.133082 13.7089 0 13.3876 0 13.0526Z" fill="#64748B"/>
</svg>
