<svg width="16" height="14" viewBox="0 0 16 14" fill="none" xmlns="http://www.w3.org/2000/svg">
<path d="M3.42857 8.71423C3.42857 8.39876 3.31696 8.12941 3.09375 7.9062C2.87054 7.68298 2.60119 7.57137 2.28571 7.57137C1.97024 7.57137 1.70089 7.68298 1.47768 7.9062C1.25446 8.12941 1.14286 8.39876 1.14286 8.71423C1.14286 9.02971 1.25446 9.29905 1.47768 9.52227C1.70089 9.74548 1.97024 9.85709 2.28571 9.85709C2.60119 9.85709 2.87054 9.74548 3.09375 9.52227C3.31696 9.29905 3.42857 9.02971 3.42857 8.71423ZM5.14286 4.71423C5.14286 4.39876 5.03125 4.12941 4.80804 3.9062C4.58482 3.68298 4.31548 3.57138 4 3.57138C3.68452 3.57138 3.41518 3.68298 3.19196 3.9062C2.96875 4.12941 2.85714 4.39876 2.85714 4.71423C2.85714 5.02971 2.96875 5.29905 3.19196 5.52227C3.41518 5.74548 3.68452 5.85709 4 5.85709C4.31548 5.85709 4.58482 5.74548 4.80804 5.52227C5.03125 5.29905 5.14286 5.02971 5.14286 4.71423ZM8.96429 9.00887L9.86607 5.59816C9.90179 5.4434 9.87947 5.29905 9.79911 5.16513C9.71875 5.0312 9.60417 4.9434 9.45536 4.90173C9.30655 4.86007 9.16369 4.87941 9.02679 4.95977C8.88988 5.04013 8.8006 5.15768 8.75893 5.31245L7.85714 8.72316C7.5 8.75292 7.18155 8.88239 6.90179 9.11155C6.62202 9.34072 6.43452 9.63387 6.33929 9.99102C6.22024 10.4494 6.27976 10.8839 6.51786 11.2946C6.75595 11.7053 7.10417 11.9702 7.5625 12.0892C8.02083 12.2083 8.45536 12.1488 8.86607 11.9107C9.27679 11.6726 9.54167 11.3244 9.66072 10.866C9.75595 10.5089 9.7381 10.1607 9.60714 9.82137C9.47619 9.48209 9.26191 9.21126 8.96429 9.00887ZM14.8571 8.71423C14.8571 8.39876 14.7455 8.12941 14.5223 7.9062C14.2991 7.68298 14.0298 7.57137 13.7143 7.57137C13.3988 7.57137 13.1295 7.68298 12.9062 7.9062C12.683 8.12941 12.5714 8.39876 12.5714 8.71423C12.5714 9.02971 12.683 9.29905 12.9062 9.52227C13.1295 9.74548 13.3988 9.85709 13.7143 9.85709C14.0298 9.85709 14.2991 9.74548 14.5223 9.52227C14.7455 9.29905 14.8571 9.02971 14.8571 8.71423ZM9.14286 2.99995C9.14286 2.68447 9.03125 2.41513 8.80804 2.19191C8.58482 1.9687 8.31548 1.85709 8 1.85709C7.68452 1.85709 7.41518 1.9687 7.19196 2.19191C6.96875 2.41513 6.85714 2.68447 6.85714 2.99995C6.85714 3.31542 6.96875 3.58477 7.19196 3.80798C7.41518 4.0312 7.68452 4.1428 8 4.1428C8.31548 4.1428 8.58482 4.0312 8.80804 3.80798C9.03125 3.58477 9.14286 3.31542 9.14286 2.99995ZM13.1429 4.71423C13.1429 4.39876 13.0312 4.12941 12.808 3.9062C12.5848 3.68298 12.3155 3.57138 12 3.57138C11.6845 3.57138 11.4152 3.68298 11.192 3.9062C10.9688 4.12941 10.8571 4.39876 10.8571 4.71423C10.8571 5.02971 10.9688 5.29905 11.192 5.52227C11.4152 5.74548 11.6845 5.85709 12 5.85709C12.3155 5.85709 12.5848 5.74548 12.808 5.52227C13.0312 5.29905 13.1429 5.02971 13.1429 4.71423ZM16 8.71423C16 10.2678 15.5804 11.7053 14.7411 13.0267C14.628 13.1993 14.4673 13.2857 14.2589 13.2857H1.74107C1.53274 13.2857 1.37202 13.1993 1.25893 13.0267C0.419643 11.7113 0 10.2738 0 8.71423C0 7.6309 0.21131 6.59518 0.633929 5.60709C1.05655 4.61899 1.625 3.7678 2.33929 3.05352C3.05357 2.33923 3.90476 1.77078 4.89286 1.34816C5.88095 0.925543 6.91667 0.714233 8 0.714233C9.08333 0.714233 10.119 0.925543 11.1071 1.34816C12.0952 1.77078 12.9464 2.33923 13.6607 3.05352C14.375 3.7678 14.9435 4.61899 15.3661 5.60709C15.7887 6.59518 16 7.6309 16 8.71423Z" fill="#64748B"/>
</svg>
