<svg width="16" height="14" viewBox="0 0 16 14" fill="none" xmlns="http://www.w3.org/2000/svg">
<path d="M4.8 6.4C5.64869 6.4 6.46263 6.06286 7.06274 5.46274C7.66286 4.86263 8 4.04869 8 3.2C8 2.35131 7.66286 1.53737 7.06274 0.937258C6.46263 0.337142 5.64869 0 4.8 0C3.95131 0 3.13737 0.337142 2.53726 0.937258C1.93714 1.53737 1.6 2.35131 1.6 3.2C1.6 4.04869 1.93714 4.86263 2.53726 5.46274C3.13737 6.06286 3.95131 6.4 4.8 6.4ZM12 6.4C12.6365 6.4 13.247 6.14714 13.6971 5.69706C14.1471 5.24697 14.4 4.63652 14.4 4C14.4 3.36348 14.1471 2.75303 13.6971 2.30294C13.247 1.85286 12.6365 1.6 12 1.6C11.3635 1.6 10.753 1.85286 10.3029 2.30294C9.85286 2.75303 9.6 3.36348 9.6 4C9.6 4.63652 9.85286 5.24697 10.3029 5.69706C10.753 6.14714 11.3635 6.4 12 6.4ZM1.8 8C1.32261 8 0.864773 8.18964 0.527208 8.52721C0.189642 8.86477 0 9.32261 0 9.8V10C0 10 0 13.6 4.8 13.6C6.284 13.6 7.3088 13.256 8.0168 12.7808C8.0648 12.4768 8.2104 12.2056 8.42 12C8.28663 11.8699 8.18074 11.7144 8.1086 11.5426C8.03645 11.3708 7.99952 11.1863 8 11C8 10.608 8.1608 10.2544 8.42 10C8.28663 9.86991 8.18074 9.71436 8.1086 9.54259C8.03645 9.37082 7.99952 9.18631 8 9C8 8.6496 8.1288 8.328 8.3424 8.0832C8.16678 8.02851 7.98394 8.00047 7.8 8H1.8ZM9.4 8.4C9.24087 8.4 9.08826 8.46321 8.97574 8.57574C8.86321 8.68826 8.8 8.84087 8.8 9C8.8 9.15913 8.86321 9.31174 8.97574 9.42426C9.08826 9.53679 9.24087 9.6 9.4 9.6H15.4C15.5591 9.6 15.7117 9.53679 15.8243 9.42426C15.9368 9.31174 16 9.15913 16 9C16 8.84087 15.9368 8.68826 15.8243 8.57574C15.7117 8.46321 15.5591 8.4 15.4 8.4H9.4ZM9.4 10.4C9.24087 10.4 9.08826 10.4632 8.97574 10.5757C8.86321 10.6883 8.8 10.8409 8.8 11C8.8 11.1591 8.86321 11.3117 8.97574 11.4243C9.08826 11.5368 9.24087 11.6 9.4 11.6H15.4C15.5591 11.6 15.7117 11.5368 15.8243 11.4243C15.9368 11.3117 16 11.1591 16 11C16 10.8409 15.9368 10.6883 15.8243 10.5757C15.7117 10.4632 15.5591 10.4 15.4 10.4H9.4ZM9.4 12.4C9.24087 12.4 9.08826 12.4632 8.97574 12.5757C8.86321 12.6883 8.8 12.8409 8.8 13C8.8 13.1591 8.86321 13.3117 8.97574 13.4243C9.08826 13.5368 9.24087 13.6 9.4 13.6H15.4C15.5591 13.6 15.7117 13.5368 15.8243 13.4243C15.9368 13.3117 16 13.1591 16 13C16 12.8409 15.9368 12.6883 15.8243 12.5757C15.7117 12.4632 15.5591 12.4 15.4 12.4H9.4Z" fill="#64748B"/>
</svg>
