<svg width="28" height="29" viewBox="0 0 28 29" fill="none" xmlns="http://www.w3.org/2000/svg">
<path d="M8.4 22.6728C6.853 22.6728 5.614 23.9258 5.614 25.4728C5.614 27.0198 6.853 28.2728 8.4 28.2728C9.947 28.2728 11.2 27.0198 11.2 25.4728C11.2 23.9258 9.947 22.6728 8.4 22.6728ZM0 0.272827V3.07283H2.8L7.833 13.6918L5.943 17.1218C5.726 17.5278 5.6 17.9828 5.6 18.4728C5.6 20.0198 6.853 21.2728 8.4 21.2728H25.2V18.4728H8.995C8.799 18.4728 8.645 18.3188 8.645 18.1228C8.645 18.0598 8.659 18.0038 8.687 17.9548L9.94 15.6728H20.37C21.42 15.6728 22.337 15.0918 22.82 14.2308L27.825 5.14483C27.937 4.94883 28 4.71783 28 4.47283C28 4.10152 27.8525 3.74543 27.59 3.48288C27.3274 3.22033 26.9713 3.07283 26.6 3.07283H5.901L4.571 0.272827H0ZM22.4 22.6728C20.853 22.6728 19.614 23.9258 19.614 25.4728C19.614 27.0198 20.853 28.2728 22.4 28.2728C23.947 28.2728 25.2 27.0198 25.2 25.4728C25.2 23.9258 23.947 22.6728 22.4 22.6728Z" fill="#F1F5F9"/>
</svg>
