<svg width="16" height="20" viewBox="0 0 16 20" fill="none" xmlns="http://www.w3.org/2000/svg">
<path d="M3 1V2C3 2.53043 3.21071 3.03914 3.58579 3.41421C3.96086 3.78929 4.46957 4 5 4H11C11.5304 4 12.0391 3.78929 12.4142 3.41421C12.7893 3.03914 13 2.53043 13 2V1H14C14.5304 1 15.0391 1.21071 15.4142 1.58579C15.7893 1.96086 16 2.46957 16 3V14C16 15.5913 15.3679 17.1174 14.2426 18.2426C13.1174 19.3679 11.5913 20 10 20H2C1.46957 20 0.960859 19.7893 0.585786 19.4142C0.210714 19.0391 0 18.5304 0 18V3C0 2.46957 0.210714 1.96086 0.585786 1.58579C0.960859 1.21071 1.46957 1 2 1H3ZM8 12H5C4.73478 12 4.48043 12.1054 4.29289 12.2929C4.10536 12.4804 4 12.7348 4 13C4 13.2652 4.10536 13.5196 4.29289 13.7071C4.48043 13.8946 4.73478 14 5 14H8C8.26522 14 8.51957 13.8946 8.70711 13.7071C8.89464 13.5196 9 13.2652 9 13C9 12.7348 8.89464 12.4804 8.70711 12.2929C8.51957 12.1054 8.26522 12 8 12ZM11 8H5C4.74512 8.00028 4.49997 8.09788 4.31463 8.27285C4.1293 8.44782 4.01776 8.68695 4.00283 8.94139C3.98789 9.19584 4.07067 9.44638 4.23426 9.64183C4.39785 9.83729 4.6299 9.9629 4.883 9.993L5 10H11C11.2652 10 11.5196 9.89464 11.7071 9.70711C11.8946 9.51957 12 9.26522 12 9C12 8.73478 11.8946 8.48043 11.7071 8.29289C11.5196 8.10536 11.2652 8 11 8ZM10 0C10.2549 0.000282707 10.5 0.0978791 10.6854 0.272848C10.8707 0.447818 10.9822 0.686953 10.9972 0.941395C11.0121 1.19584 10.9293 1.44638 10.7657 1.64183C10.6021 1.83729 10.3701 1.9629 10.117 1.993L10 2H6C5.74512 1.99972 5.49997 1.90212 5.31463 1.72715C5.1293 1.55218 5.01776 1.31305 5.00283 1.05861C4.98789 0.804163 5.07067 0.553621 5.23426 0.358167C5.39785 0.162714 5.6299 0.0371036 5.883 0.00699997L6 0H10Z" fill="#3730A3"/>
</svg>
