<svg width="16" height="16" viewBox="0 0 16 16" fill="none" xmlns="http://www.w3.org/2000/svg">
<path fill-rule="evenodd" clip-rule="evenodd" d="M14.4 0.800049H1.6C0.72 0.800049 0 1.52005 0 2.40005V13.6C0 14.48 0.72 15.2 1.6 15.2H14.4C15.28 15.2 16 14.48 16 13.6V2.40005C16 1.52005 15.28 0.800049 14.4 0.800049ZM5.6 12H3.2C2.76 12 2.4 11.64 2.4 11.2C2.4 10.76 2.76 10.4 3.2 10.4H5.6C6.04 10.4 6.4 10.76 6.4 11.2C6.4 11.64 6.04 12 5.6 12ZM5.6 8.80005H3.2C2.76 8.80005 2.4 8.44005 2.4 8.00005C2.4 7.56005 2.76 7.20005 3.2 7.20005H5.6C6.04 7.20005 6.4 7.56005 6.4 8.00005C6.4 8.44005 6.04 8.80005 5.6 8.80005ZM5.6 5.60005H3.2C2.76 5.60005 2.4 5.24005 2.4 4.80005C2.4 4.36005 2.76 4.00005 3.2 4.00005H5.6C6.04 4.00005 6.4 4.36005 6.4 4.80005C6.4 5.24005 6.04 5.60005 5.6 5.60005ZM13.36 7.29605L10.824 9.83205C10.512 10.144 10 10.144 9.688 9.83205L8.56 8.69605C8.48593 8.62198 8.42718 8.53405 8.3871 8.43728C8.34701 8.34051 8.32638 8.23679 8.32638 8.13205C8.32638 8.0273 8.34701 7.92358 8.3871 7.82681C8.42718 7.73004 8.48593 7.64211 8.56 7.56805C8.63407 7.49398 8.72199 7.43523 8.81877 7.39515C8.91554 7.35506 9.01926 7.33443 9.124 7.33443C9.22874 7.33443 9.33246 7.35506 9.42923 7.39515C9.52601 7.43523 9.61393 7.49398 9.688 7.56805L10.256 8.13605L12.232 6.16005C12.306 6.08589 12.3939 6.02705 12.4907 5.9869C12.5875 5.94676 12.6912 5.92609 12.796 5.92609C12.9008 5.92609 13.0045 5.94676 13.1013 5.9869C13.1981 6.02705 13.286 6.08589 13.36 6.16005L13.368 6.16805C13.672 6.48005 13.672 6.99205 13.36 7.29605Z" fill="#64748B"/>
</svg>
